<svg xmlns="http://www.w3.org/2000/svg" xmlns:xlink="http://www.w3.org/1999/xlink" aria-hidden="true" focusable="false" width="1em" height="1em" style="-ms-transform: rotate(360deg); -webkit-transform: rotate(360deg); transform: rotate(360deg);" preserveAspectRatio="xMidYMid meet" viewBox="0 0 16 16"><g fill="currentColor"><path fill-rule="evenodd" d="M5 11.5a.5.5 0 0 1 .5-.5h9a.5.5 0 0 1 0 1h-9a.5.5 0 0 1-.5-.5zm0-4a.5.5 0 0 1 .5-.5h9a.5.5 0 0 1 0 1h-9a.5.5 0 0 1-.5-.5zm0-4a.5.5 0 0 1 .5-.5h9a.5.5 0 0 1 0 1h-9a.5.5 0 0 1-.5-.5zm-3 1a1 1 0 1 0 0-2a1 1 0 0 0 0 2zm0 4a1 1 0 1 0 0-2a1 1 0 0 0 0 2zm0 4a1 1 0 1 0 0-2a1 1 0 0 0 0 2z"/></g></svg>